<?xml version="1.0" standalone="no"?><!DOCTYPE svg PUBLIC "-//W3C//DTD SVG 1.1//EN" "http://www.w3.org/Graphics/SVG/1.1/DTD/svg11.dtd"><svg t="1751343530282" class="icon" viewBox="0 0 1024 1024" version="1.1" xmlns="http://www.w3.org/2000/svg" p-id="6101" xmlns:xlink="http://www.w3.org/1999/xlink" width="200" height="200"><path d="M832.2 64.2H192.5c-84.9 0-127.3 42.8-127.3 128.3v638.7c0 85.6 42.4 128.3 127.3 128.3h639.7c85.6 0 128.3-42.8 128.3-128.3V192.6c0-85.6-42.7-128.4-128.3-128.4zM175.6 324.9v-56.7l177.1 177.1 34.8-34.8-197-197 29.8-29.8 197 197 33.8-34.8-176-176.2h57.7l195 195-157.2 155.2-195-195z m640.7 525.3L574.5 608.4l40.8-42.8L859 809.3l-42.7 40.9z m-532.3-1l-29.8-29.8L496 578.6 428.3 510l279.6-280.6c75.6-66.3 139.6-65.3 192 3L284 849.2z" p-id="6102"></path></svg>