<?xml version="1.0" standalone="no"?><!DOCTYPE svg PUBLIC "-//W3C//DTD SVG 1.1//EN" "http://www.w3.org/Graphics/SVG/1.1/DTD/svg11.dtd"><svg t="1750830025585" class="icon" viewBox="0 0 1024 1024" version="1.1" xmlns="http://www.w3.org/2000/svg" p-id="15032" xmlns:xlink="http://www.w3.org/1999/xlink" width="200" height="200"><path d="M967.296 477.8a33.04 33.04 0 0 0-32.944 32.944v112.72H538.184v-53.656c0-80.128-65.184-145.312-145.312-145.312H91.528V66.8c0-18.592-15.296-33.888-33.888-33.888A33.968 33.968 0 0 0 23.752 66.8v891.296c0.008 18.592 15.304 33.888 33.896 33.888s33.888-15.296 33.888-33.888v-148.608h521.952c14 0 25.416-11.416 25.416-25.416s-11.416-25.416-25.416-25.416H91.528v-23.064h1.056v-44.48h841.76v67.424H780.448c-14 0-25.416 11.416-25.416 25.416s11.416 25.416 25.416 25.416h153.904v149.432c0 18.12 14.824 32.944 32.944 32.944s32.944-14.824 32.944-32.944V510.864c0.12-18.12-14.704-33.064-32.944-33.064z" fill="#070707" p-id="15033"></path><path d="M547.104 64.312h72c16 0 24 8 24 24v72c0 16-8 24-24 24h-72c-16 0-24-8-24-24v-72c0-16 8-24 24-24zM811.104 328.312h72c16 0 24 8 24 24v72c0 16-8 24-24 24h-72c-16 0-24-8-24-24v-72c0-16 8-24 24-24zM528.336 280.08l42.424-42.424c8.488-8.488 16.968-8.488 25.456 0s8.488 16.968 0 25.456l-42.424 42.424c-8.488 8.488-16.968 8.488-25.456 0-8.488-8.48-8.488-16.968 0-25.456z" p-id="15034"></path><path d="M612.952 305.384l-42.424-42.424c-8.488-8.488-8.488-16.968 0-25.456s16.968-8.488 25.456 0l42.424 42.424c8.488 8.488 8.488 16.968 0 25.456-8.48 8.48-16.968 8.48-25.456 0z" p-id="15035"></path><path d="M583.104 232.312c12 0 18 6 18 18v138c0 12-6 18-18 18s-18-6-18-18v-138c0-12 6-18 18-18z" p-id="15036"></path><path d="M739.104 388.312c0 12-6 18-18 18h-138c-12 0-18-6-18-18s6-18 18-18h138c12 0 18 6 18 18zM901.8 232.52l-42.424 42.424c-8.488 8.488-16.968 8.488-25.456 0s-8.488-16.968 0-25.456l42.424-42.424c8.488-8.488 16.968-8.488 25.456 0s8.488 16.968 0 25.456z" p-id="15037"></path><path d="M817.144 207.208l42.424 42.424c8.488 8.488 8.488 16.968 0 25.456s-16.968 8.488-25.456 0l-42.424-42.424c-8.488-8.488-8.488-16.968 0-25.456s16.968-8.488 25.456 0z" p-id="15038"></path><path d="M847.104 280.312c-12 0-18-6-18-18v-138c0-12 6-18 18-18s18 6 18 18v138c0 12-6 18-18 18z" p-id="15039"></path><path d="M691.104 124.552c0-12 6-18 18-18h138c12 0 18 6 18 18s-6 18-18 18h-138c-12 0-18-6-18-18z" p-id="15040"></path></svg>