<?xml version="1.0" standalone="no"?><!DOCTYPE svg PUBLIC "-//W3C//DTD SVG 1.1//EN" "http://www.w3.org/Graphics/SVG/1.1/DTD/svg11.dtd"><svg t="1750829995926" class="icon" viewBox="0 0 1024 1024" version="1.1" xmlns="http://www.w3.org/2000/svg" p-id="14871" xmlns:xlink="http://www.w3.org/1999/xlink" width="200" height="200"><path d="M998.4 552.228571c-18.285714-36.571429-40.228571-73.142857-69.485714-102.4v-329.142857c0-65.828571-54.857143-117.028571-117.028572-117.028571H215.771429C149.942857 0 95.085714 54.857143 95.085714 117.028571v329.142858c-29.257143 32.914286-51.2 65.828571-65.828571 102.4-18.285714 43.885714-29.257143 87.771429-29.257143 135.314285v182.857143c0 14.628571 10.971429 29.257143 29.257143 29.257143h965.485714c14.628571 0 29.257143-10.971429 29.257143-29.257143v-182.857143c0-47.542857-10.971429-91.428571-25.6-131.657143zM153.6 117.028571c0-36.571429 29.257143-62.171429 62.171429-62.171428h596.114285c36.571429 0 62.171429 29.257143 62.171429 62.171428v281.6c-10.971429-7.314286-21.942857-10.971429-32.914286-18.285714V266.971429c0-40.228571-32.914286-73.142857-73.142857-73.142858h-168.228571c-40.228571 0-73.142857 32.914286-73.142858 73.142858v73.142857H512v-73.142857c0-40.228571-32.914286-73.142857-73.142857-73.142858H266.971429c-40.228571 0-73.142857 32.914286-73.142858 73.142858v109.714285c-14.628571 7.314286-29.257143 14.628571-40.228571 21.942857V117.028571z m629.028571 149.942858v91.428571c-32.914286-10.971429-65.828571-14.628571-98.742857-14.628571H585.142857v-73.142858c0-10.971429 7.314286-14.628571 14.628572-14.628571H768c7.314286-3.657143 14.628571 3.657143 14.628571 10.971429z m-329.142857 0v73.142857h-109.714285c-29.257143 3.657143-58.514286 7.314286-87.771429 14.628571V266.971429c0-10.971429 7.314286-14.628571 14.628571-14.628572H438.857143c7.314286 0 14.628571 7.314286 14.628571 14.628572z m-314.514285 215.771428c54.857143-54.857143 124.342857-84.114286 201.142857-84.114286h336.457143c76.8 0 146.285714 29.257143 201.142857 84.114286 40.228571 40.228571 69.485714 95.085714 80.457143 149.942857H62.171429c7.314286-54.857143 36.571429-106.057143 76.8-149.942857z m826.514285 354.742857H58.514286V694.857143h910.628571v142.628571z m0 0" p-id="14872"></path><path d="M157.257143 1024h-14.628572c-10.971429 0-21.942857-10.971429-21.942857-21.942857v-153.6h54.857143v153.6c3.657143 10.971429-7.314286 21.942857-18.285714 21.942857zM877.714286 1024h-14.628572c-10.971429 0-21.942857-10.971429-21.942857-21.942857v-153.6h54.857143v153.6c3.657143 10.971429-7.314286 21.942857-18.285714 21.942857z" p-id="14873"></path></svg>