<?xml version="1.0" standalone="no"?><!DOCTYPE svg PUBLIC "-//W3C//DTD SVG 1.1//EN" "http://www.w3.org/Graphics/SVG/1.1/DTD/svg11.dtd"><svg t="1750829953666" class="icon" viewBox="0 0 1024 1024" version="1.1" xmlns="http://www.w3.org/2000/svg" p-id="13824" xmlns:xlink="http://www.w3.org/1999/xlink" width="200" height="200"><path d="M42.422857 39.497143a43.154286 43.154286 0 0 0-42.422857 43.154286v906.971428h85.577143v-129.462857h852.114286v129.462857H1024V298.422857a42.422857 42.422857 0 1 0-84.845714 0v388.388572H85.577143V82.651429A43.885714 43.885714 0 0 0 42.422857 39.497143z m128 343.771428a42.422857 42.422857 0 0 0-43.154286 43.154286v172.617143a42.422857 42.422857 0 0 0 43.154286 43.154286h681.691429a42.422857 42.422857 0 0 0 42.422857-43.154286V426.422857a42.422857 42.422857 0 0 0-42.422857-43.154286H170.422857z m0-127.268571a42.422857 42.422857 0 0 0-43.154286 43.154286 43.154286 43.154286 0 0 0 43.154286 43.154285h255.268572a43.885714 43.885714 0 0 0 43.154285-43.154285 43.154286 43.154286 0 0 0-43.154285-43.154286H170.422857z" p-id="13825"></path></svg>