<?xml version="1.0" standalone="no"?><!DOCTYPE svg PUBLIC "-//W3C//DTD SVG 1.1//EN" "http://www.w3.org/Graphics/SVG/1.1/DTD/svg11.dtd"><svg t="1750830112380" class="icon" viewBox="0 0 1170 1024" version="1.1" xmlns="http://www.w3.org/2000/svg" p-id="17922" xmlns:xlink="http://www.w3.org/1999/xlink" width="228.515625" height="200"><path d="M946.102181 183.150315L627.711552 630.711138l2.633141 131.657049 129.682193-35.47426 318.463772-447.414538-132.388477-96.329074z m38.180545-53.394248L1037.457545 54.857835l132.388477 96.329074-53.394248 74.751947-132.169048-96.255931z" fill="#666666" p-id="17923"></path><path d="M796.159431 754.907621l-204.799853 56.539388-5.924568-202.386141 380.562014-529.553908A111.689063 111.689063 0 0 0 858.69653 0.000731H113.371348C51.346249 0.000731 1.023999 49.372125 1.023999 110.300081v802.961712c0 61.001099 50.32225 110.372493 112.420491 110.372493h745.178897c29.769122 0 58.367958-11.702849 79.433086-32.32912 21.138271-20.699414 32.914262-48.786251 32.914262-78.043373V511.634652l-174.811304 243.272969zM172.763305 193.536593H624.639554c29.330265 0 53.101676 23.332555 53.101676 52.077677a52.66282 52.66282 0 0 1-53.101676 52.15082H172.763305a52.66282 52.66282 0 0 1-53.101676-52.15082 52.66282 52.66282 0 0 1 53.101676-52.077677z m237.714116 622.44527h-237.714116a52.66282 52.66282 0 0 1-53.101676-52.15082 52.66282 52.66282 0 0 1 53.101676-52.077677h237.714116c29.330265 0 53.101676 23.259412 53.101676 52.077677a52.66282 52.66282 0 0 1-53.101676 52.077677z m94.500504-259.144958H172.763305a52.66282 52.66282 0 0 1-53.101676-52.15082 52.66282 52.66282 0 0 1 53.101676-52.077677h332.21462a52.66282 52.66282 0 0 1 53.101676 52.077677 52.66282 52.66282 0 0 1-53.101676 52.15082z" fill="#666666" p-id="17924"></path></svg>