<?xml version="1.0" standalone="no"?><!DOCTYPE svg PUBLIC "-//W3C//DTD SVG 1.1//EN" "http://www.w3.org/Graphics/SVG/1.1/DTD/svg11.dtd"><svg t="1750296986784" class="icon" viewBox="0 0 1166 1024" version="1.1" xmlns="http://www.w3.org/2000/svg" p-id="2453" data-spm-anchor-id="a313x.search_index.0.i2.7d513a81SUGkDt" xmlns:xlink="http://www.w3.org/1999/xlink" width="227.734375" height="200"><path d="M849.980019 0.638927a308.20631 308.20631 0 0 0-213.800881 88.571228l-110.57427 117.442733c-9.42417 9.224506-14.735249 21.803377-14.735249 34.981242s5.311079 25.79667 14.735249 34.981243v2.435908c8.905042 8.865109 21.204383 13.497329 33.743322 12.738603 12.379207-0.519128 23.999688-5.989939 32.305736-15.174511l109.096752-115.965215a212.279437 212.279437 0 0 1 146.793433-60.178918c124.271263 3.474164 222.426393 106.660843 219.671021 230.932106a254.544445 254.544445 0 0 1-66.528253 165.362243l-378.204734 400.726904c-16.65203 18.089615-29.3507 25.437273-41.570176 25.437273a64.092345 64.092345 0 0 1-42.089303-24.958078l-374.33124-398.730258a239.573591 239.573591 0 0 1-66.528254-167.838084C93.850081 206.972351 191.286419 102.747416 315.67748 98.514526c45.244004 0.758726 89.050423 16.212768 124.750459 44.046017h2.435908c10.342628 6.908396 23.121164 9.184573 35.22084 6.349335 12.099676-2.475841 22.641969-9.703701 29.3507-20.046328 14.934914-22.562103 10.023164-52.791327-11.261085-69.48329A305.958086 305.958086 0 0 0 315.67748 0.638927C137.257171 4.91175-4.025518 152.943103 0.087573 331.403346a338.295769 338.295769 0 0 0 91.486331 231.930429l380.640643 404.640331a154.177031 154.177031 0 0 0 110.57427 54.787973 153.054916 153.054916 0 0 0 110.57427-55.307101l379.203057-402.204422c58.7014-63.89268 91.765862-147.152829 92.96385-233.887143C1169.683018 152.943103 1028.440262 4.91175 849.980019 0.638927z" fill="#999899" p-id="2454"></path><path d="M573.524378 337.273486c12.978201 0 25.437273 5.151347 34.581913 14.33592 9.184573 9.184573 14.33592 21.603713 14.335921 34.581913v97.835667h97.835666c27.03459 0 48.917833 21.923176 48.917834 48.917833s-21.883243 48.917833-48.917834 48.917834h-97.835666v97.875599c0 27.03459-21.923176 48.917833-48.917834 48.917833s-48.917833-21.923176-48.917833-48.917833v-97.875599h-97.8756c-27.03459 0-48.917833-21.923176-48.917833-48.917834s21.923176-48.917833 48.917833-48.917833h97.8756v-97.835667c0-12.978201 5.151347-25.437273 14.33592-34.581913 9.184573-9.184573 21.603713-14.33592 34.581913-14.33592z" fill="#999899" p-id="2455"></path></svg>