<?xml version="1.0" standalone="no"?><!DOCTYPE svg PUBLIC "-//W3C//DTD SVG 1.1//EN" "http://www.w3.org/Graphics/SVG/1.1/DTD/svg11.dtd"><svg t="1750830063646" class="icon" viewBox="0 0 1024 1024" version="1.1" xmlns="http://www.w3.org/2000/svg" p-id="16027" xmlns:xlink="http://www.w3.org/1999/xlink" width="200" height="200"><path d="M558.370388 63.462527l330.797851 105.329354A50.945274 50.945274 0 0 1 924.656716 217.337632v442.576875c-43.996338 67.808159-103.337393 130.506507-178.018069 188.10014-74.685771 57.598726-152.896955 100.973532-234.638647 130.134607-116.842985-50.787343-199.491502-94.8601-247.950647-132.228458-48.448955-37.368358-103.352677-99.368756-164.706069-186.006289V217.332537a50.945274 50.945274 0 0 1 35.488477-48.545751l330.797851-105.329353a152.835821 152.835821 0 0 1 92.740776 0zM506.905473 267.681751a33.114428 33.114428 0 0 0-33.114428 33.114428v127.363184h-127.363184a33.114428 33.114428 0 0 0-33.09405 31.927403l-0.020378 1.187025a33.114428 33.114428 0 0 0 33.114428 33.114428h127.363184v127.363184a33.114428 33.114428 0 0 0 31.927403 33.09405l1.187025 0.020378a33.114428 33.114428 0 0 0 33.114427-33.114428v-127.363184h127.363185a33.114428 33.114428 0 0 0 33.094049-31.927403l0.020378-1.187025a33.114428 33.114428 0 0 0-33.114427-33.114428h-127.363185v-127.363184a33.114428 33.114428 0 0 0-31.927402-33.09405z" fill="#333333" p-id="16028"></path></svg>