<?xml version="1.0" standalone="no"?><!DOCTYPE svg PUBLIC "-//W3C//DTD SVG 1.1//EN" "http://www.w3.org/Graphics/SVG/1.1/DTD/svg11.dtd"><svg t="1750829777056" class="icon" viewBox="0 0 1024 1024" version="1.1" xmlns="http://www.w3.org/2000/svg" p-id="9560" xmlns:xlink="http://www.w3.org/1999/xlink" width="200" height="200"><path d="M935.632384 810.257067c-30.583467-47.377067-64.341333-85.2992-65.672533-86.869334-51.2-57.685333-108.100267-102.1952-169.301334-132.3008a450.56 450.56 0 0 0-80.2816-30.549333 314.402133 314.402133 0 0 0 59.835734-51.712c50.926933-56.251733 80.418133-125.713067 83.968-196.846933l2.798933 0.955733-3.652267-44.2368-1.604266-19.694933-0.341334-0.1024c-7.441067-63.6928-30.481067-194.082133-73.728-239.650134L678.813184 0H340.312917l-8.772266 9.216C288.157184 54.954667 265.219584 185.2416 257.812651 248.9344l-0.375467 0.1024-1.604267 19.694933-3.652266 44.2368 2.798933-0.955733c3.549867 71.133867 33.041067 140.458667 83.968 196.846933a310.4768 310.4768 0 0 0 62.1568 53.1456c-25.463467 7.168-50.449067 16.896-75.195733 29.115734-60.928 30.1056-117.725867 74.410667-168.891734 131.959466a776.635733 776.635733 0 0 0-69.12 84.923734C39.427584 877.7728 23.931051 930.9184 40.622251 970.1376 55.845717 1005.909333 94.211584 1024 154.695851 1024h717.2096c55.0912 0 90.794667-17.271467 106.018133-51.0976 17.066667-38.741333 3.310933-91.886933-42.2912-162.645333zM367.858517 59.153067h283.306667c19.899733 32.017067 38.2976 106.496 47.684267 171.008l-0.477867-0.1024c-3.549867-0.8192-7.0656-1.809067-10.478933-2.628267-0.238933-0.136533-0.512-0.136533-0.750934-0.238933l-10.9568-2.525867c-0.341333-0.1024-0.750933-0.1024-0.989866-0.238933-7.543467-1.706667-15.086933-3.242667-22.664534-4.676267-0.1024 0-0.238933 0-0.341333-0.1024a695.534933 695.534933 0 0 0-35.2256-5.905067c-11.844267-1.672533-23.6544-3.106133-35.601067-4.1984h-0.238933c-7.68-0.682667-15.36-1.297067-23.1424-1.774933-0.375467 0-0.750933 0-1.2288-0.136533-3.754667-0.238933-7.441067-0.477867-11.229867-0.6144h-0.580266c-3.549867-0.1024-7.099733-0.341333-10.615467-0.341334h-1.365333c-3.515733-0.136533-7.031467-0.238933-10.581334-0.238933h-2.184533c-3.549867 0-7.202133-0.136533-10.752-0.136533-3.515733 0-7.168 0-10.717867 0.136533h-2.184533c-3.549867 0-7.0656 0.1024-10.581333 0.238933h-1.365334l-10.581333 0.341334h-0.750933c-3.754667 0.136533-7.441067 0.375467-11.229867 0.6144a734.788267 734.788267 0 0 0-24.234667 1.911466h-0.238933c-11.844267 1.092267-23.6544 2.525867-35.498667 4.1984h-0.1024c-11.707733 1.706667-23.517867 3.618133-35.089066 5.905067-0.136533 0-0.238933 0-0.341334 0.1024-7.5776 1.4336-15.121067 3.003733-22.562133 4.676267-0.375467 0.136533-0.750933 0.136533-1.092267 0.238933l-10.990933 2.525867c-0.238933 0.1024-0.477867 0.1024-0.7168 0.238933-3.549867 0.853333-7.0656 1.706667-10.581333 2.628267-0.136533 0-0.4096 0.136533-0.512 0.136533 9.5232-64.512 27.784533-139.025067 47.786666-171.042133z m15.940267 410.9312c-44.9536-48.9472-69.700267-110.114133-69.700267-172.475734v-4.437333c7.918933-2.286933 15.837867-4.437333 23.7568-6.485333a704.785067 704.785067 0 0 1 121.856-19.319467l11.946667-0.7168h0.887467c3.8912-0.238933 7.68-0.341333 11.5712-0.477867h1.092266l11.605334-0.341333h0.682666c4.061867-0.136533 8.055467-0.136533 12.0832-0.136533s8.055467 0 12.0832 0.1024h0.6144c3.8912 0.136533 7.7824 0.136533 11.6736 0.341333h0.989867c3.8912 0.136533 7.7824 0.375467 11.707733 0.512h0.7168c53.623467 2.8672 106.496 11.741867 157.696 26.5216v4.437333c0 62.3616-24.746667 123.562667-69.8368 172.475734-38.229333 41.642667-87.620267 68.5056-125.610666 68.5056-38.161067 0-87.517867-26.897067-125.815467-68.5056z m129.4336 135.406933c67.037867 0 132.471467 19.182933 193.536 56.388267l-199.850667 160.256-188.177066-159.675734c61.44-37.546667 127.112533-56.968533 194.491733-56.968533z m410.112 343.176533c-4.5056 10.205867-23.415467 15.940267-51.541333 15.940267H154.525184c-32.768 0-54.4768-6.485333-59.221333-17.749333-5.8368-13.653333 1.9456-48.469333 41.198933-104.925867a735.982933 735.982933 0 0 1 63.829333-78.472533l0.887467-0.8192a561.390933 561.390933 0 0 1 64.7168-62.498134l239.8208 203.298134 254.225067-203.776c22.528 18.432 44.373333 39.458133 65.3312 63.0784 1.365333 1.4336 32.904533 37.205333 60.450133 79.872 36.932267 57.480533 43.6224 92.501333 37.546667 106.052266zM673.249451 28.910933H351.781717L308.500651 132.608l-26.965334 138.786133 64.512-8.533333 239.616-18.944 157.832534 27.477333L673.249451 28.910933zM556.001451 153.258667h-25.7024v25.8048H488.792917V153.258667h-25.736533V111.957333h25.736533v-25.8048h41.540267v25.8048h25.7024V153.258667zM72.229717 963.345067l60.6208 44.032 791.108267-22.016 44.714667-41.915734-24.507734-65.365333-57.7536-73.864533-59.1872-78.165334-66.423466-65.3312-251.221334 194.628267-236.714666-194.628267-57.719467 48.298667-59.938133 58.948267-44.032 66.082133-27.409067 41.198933-18.773333 46.8992 7.236266 41.198934z" fill="#743A0A" p-id="9561"></path></svg>