<?xml version="1.0" standalone="no"?><!DOCTYPE svg PUBLIC "-//W3C//DTD SVG 1.1//EN" "http://www.w3.org/Graphics/SVG/1.1/DTD/svg11.dtd"><svg t="1750297112479" class="icon" viewBox="0 0 1024 1024" version="1.1" xmlns="http://www.w3.org/2000/svg" p-id="3472" xmlns:xlink="http://www.w3.org/1999/xlink" width="200" height="200"><path d="M772.461714 133.156571c0-55.222857-63.158857-55.222857-63.158857-55.222857H362.020571c-47.36 0-86.784 0-86.784 55.222857v110.518858H80.018286a73.142857 73.142857 0 0 0-73.142857 73.142857V872.96a73.142857 73.142857 0 0 0 73.142857 73.142857h863.963428a73.142857 73.142857 0 0 0 73.142857-73.142857V316.818286a73.142857 73.142857 0 0 0-73.142857-73.142857h-171.52V133.156571z m-221.001143 505.124572v149.942857h-55.296v-149.942857h-149.942857v-63.122286h149.942857v-149.942857h55.296v157.842286h149.942858v55.222857h-149.942858zM709.266286 172.617143v71.058286H338.358857V172.617143c0-47.36 39.460571-47.36 39.460572-47.36h291.986285c47.396571 0 39.497143 47.36 39.497143 47.36z" p-id="3473"></path></svg>