<?xml version="1.0" standalone="no"?><!DOCTYPE svg PUBLIC "-//W3C//DTD SVG 1.1//EN" "http://www.w3.org/Graphics/SVG/1.1/DTD/svg11.dtd"><svg t="1751343462629" class="icon" viewBox="0 0 1024 1024" version="1.1" xmlns="http://www.w3.org/2000/svg" p-id="5081" xmlns:xlink="http://www.w3.org/1999/xlink" width="200" height="200"><path d="M943.641704 411.308582c5.695272 5.695272 11.390545 11.390545 16.9859 11.390545 5.695272 0 5.695272 0 11.390545-5.695273 11.390545-5.695272 11.390545-16.9859 5.695272-28.376445 0 0-62.448163-102.115236-11.390544-170.158755 28.376445-39.667073 34.071718-85.129336 16.9859-136.186954-16.9859-39.667073-34.071718-62.448163-39.667073-68.043519-5.695272-11.390545-22.681173-11.390545-28.376446 0-11.390545 5.695272-11.390545 22.681173 0 28.376446 0 0 73.738791 90.724691 22.681173 153.172854-73.738791 85.029419 0 209.825828 5.695273 215.521101z m-737.487828 5.695272c5.695272 5.695272 11.390545 11.390545 16.985901 11.390545 5.695272 0 5.695272 0 11.390545-5.695272 11.390545-5.695272 11.390545-16.9859 5.695272-28.376446 0 0-62.448163-102.115236-11.390545-170.158755 28.376445-39.667073 34.071718-85.129336 16.9859-136.186954-16.9859-39.667073-34.071718-62.448163-39.667073-68.043518-5.695272-11.390545-22.681173-11.390545-28.376445 0-11.390545 5.695272-11.390545 22.681173 0 28.376445 0 0 73.738791 90.724691 22.681173 153.172855-73.738791 85.029419 5.695272 209.825828 5.695272 215.5211zM801.759477 405.613309c5.695272 5.695272 11.390545 11.390545 16.9859 11.390545 5.695272 0 5.695272 0 11.390545-5.695272 11.390545-5.695272 11.390545-16.9859 5.695273-28.376446 0 0-62.448163-102.115236-11.390545-170.158755 28.376445-39.667073 34.071718-85.129336 16.9859-136.186954-16.9859-39.667073-34.071718-62.448163-39.667073-68.043518-5.695272-11.390545-22.681173-11.390545-28.376445 0-11.390545 5.695272-11.390545 22.681173 0 28.376445 0 0 73.738791 90.724691 22.681173 153.172855-73.638874 90.724691 5.695272 215.521101 5.695272 215.5211zM64.371567 417.003854c5.695272 5.695272 11.390545 11.390545 16.9859 11.390545 5.695272 0 5.695272 0 11.390545-5.695272 11.390545-5.695272 11.390545-16.9859 5.695272-28.376446 0 0-62.448163-102.115236-11.390545-170.158755 28.376445-39.667073 34.071718-85.129336 16.985901-136.186954-16.9859-39.667073-33.971801-62.448163-39.667073-68.043518-5.695272-11.390545-22.681173-11.390545-28.376446 0-11.390545 5.695272-11.390545 22.681173 0 28.376445 0 0 73.738791 90.724691 22.681173 153.172855-73.738791 85.029419 5.695272 209.825828 5.695273 215.5211z m930.327755 436.837391c-12.789384-16.9859-28.776114-27.677026-45.462263-31.873542-4.596185-215.820852-170.258672-395.371811-386.87886-414.555887 22.08167-15.686979 35.270723-41.665414 35.270722-69.742108 5.695272-45.362346-34.071718-85.129336-85.129336-85.129336s-85.129336 39.667073-85.129336 85.129336c0 29.375616 16.586232 56.353222 40.566327 71.74045-203.031468 26.478021-363.798019 196.137191-369.393375 404.664097h-5.795189c-22.681173 5.695272-45.362346 11.390545-62.448163 34.071718-11.390545 16.9859-22.681173 39.667073-22.681173 68.043518 0 22.681173 5.695272 51.057618 22.681173 68.043519 16.9859 22.681173 39.667073 34.071718 62.448163 34.071718l839.603064 5.695272c22.681173 0 45.362346-11.390545 62.448163-34.071718 11.390545-16.9859 22.681173-39.667073 22.681173-68.043518-0.099917-22.681173-5.79519-51.057618-22.78109-68.043519zM512.499585 292.207445c28.376445 0 45.362346 22.681173 45.362346 45.362346 0 28.376445-22.681173 45.362346-45.362346 45.362345-28.376445 0-45.362346-22.681173-45.362345-45.362345s22.681173-45.362346 45.362345-45.362346zM960.627604 955.856564c-5.695272 5.695272-16.9859 11.390545-28.376445 11.390545l-839.603064-5.695272c-16.9859 0-22.681173-5.695272-28.376445-11.390545-5.695272-11.390545-11.390545-22.681173-11.390545-39.667073 0-16.9859 5.695272-28.376445 11.390545-39.667074 5.695272-5.695272 16.9859-11.390545 28.376445-11.390545H642.89135c11.390545 0 22.681173-11.390545 22.681173-22.681172 0-11.390545-11.390545-22.681173-22.681173-22.681173H143.905547c5.79519-204.430307 168.160414-363.0986 374.189394-363.0986 202.332049 0 371.191882 167.061326 374.389227 368.693955h-85.029419c-11.390545 0-22.681173 11.390545-22.681172 22.681173 0 11.390545 11.390545 22.681173 22.681172 22.681173h124.79641c16.9859 0 22.681173 5.695272 28.376445 11.390545 5.695272 11.390545 11.390545 22.681173 11.390545 39.667073 0 17.085817-5.695272 28.476362-11.390545 39.76699z" fill="" p-id="5082"></path></svg>