<?xml version="1.0" standalone="no"?><!DOCTYPE svg PUBLIC "-//W3C//DTD SVG 1.1//EN" "http://www.w3.org/Graphics/SVG/1.1/DTD/svg11.dtd"><svg t="1750829617347" class="icon" viewBox="0 0 1025 1024" version="1.1" xmlns="http://www.w3.org/2000/svg" p-id="7389" xmlns:xlink="http://www.w3.org/1999/xlink" width="200.1953125" height="200"><path d="M226.986667 366.933333c13.653333 0 23.893333-10.24 23.893333-23.893333V116.053333c0-25.6 20.48-46.08 46.08-46.08h600.746667c-5.12 1.706667-11.946667 5.12-18.773334 6.826667l-365.226666 129.706667c-8.533333 3.413333-15.36 11.946667-15.36 22.186666v186.026667c0 13.653333 10.24 23.893333 23.893333 23.893333 13.653333 0 23.893333-10.24 23.893333-23.893333v-168.96l351.573334-124.586667c1.706667 0 1.706667-1.706667 3.413333-1.706666 15.36-8.533333 25.6-8.533333 30.72-5.12 5.12 3.413333 6.826667 11.946667 6.826667 17.066666v322.56c0 13.653333 10.24 23.893333 23.893333 23.893334s23.893333-10.24 23.893333-23.893334V131.413333v-15.36c0-51.2-42.666667-93.866667-93.866666-93.866666H296.96c-51.2 0-93.866667 42.666667-93.866667 93.866666v226.986667c0 13.653333 10.24 23.893333 23.893334 23.893333zM226.986667 575.146667c-13.653333 0-23.893333 10.24-23.893334 23.893333v225.28c0 51.2 42.666667 93.866667 93.866667 93.866667h131.413333c13.653333 0 23.893333-10.24 23.893334-23.893334s-11.946667-23.893333-23.893334-23.893333h-131.413333c-25.6 0-46.08-20.48-46.08-46.08V599.04c0-13.653333-10.24-23.893333-23.893333-23.893333zM98.986667 580.266667c5.12 3.413333 10.24 6.826667 15.36 6.826666 6.826667 0 11.946667-1.706667 17.066666-6.826666 8.533333-10.24 8.533333-23.893333-1.706666-32.426667l-51.2-47.786667h312.32c13.653333 0 23.893333-10.24 23.893333-23.893333 0-13.653333-10.24-23.893333-23.893333-23.893333H80.213333l52.906667-56.32c8.533333-10.24 8.533333-23.893333-1.706667-32.426667s-23.893333-8.533333-32.426666 1.706667L6.826667 460.8c-5.12 5.12-6.826667 10.24-6.826667 17.066667s3.413333 11.946667 6.826667 17.066666l92.16 85.333334z" fill="#566EB5" p-id="7390"></path><path d="M738.986667 448.853333c-157.013333 0-286.72 128-286.72 286.72 0 157.013333 128 286.72 286.72 286.72 157.013333 0 286.72-128 286.72-286.72-1.706667-158.72-129.706667-286.72-286.72-286.72z m0 525.653334c-131.413333 0-238.933333-107.52-238.933334-238.933334s107.52-238.933333 238.933334-238.933333 238.933333 107.52 238.933333 238.933333-107.52 238.933333-238.933333 238.933334z" fill="#566EB5" p-id="7391"></path><path d="M843.093333 759.466667h-20.48l-34.133333-51.2c20.48-15.36 32.426667-39.253333 32.426667-66.56 0-46.08-37.546667-83.626667-83.626667-83.626667s-83.626667 37.546667-83.626667 83.626667c0 25.6 11.946667 51.2 32.426667 66.56l-34.133333 51.2H631.466667c-32.426667 0-59.733333 27.306667-59.733334 59.733333s27.306667 59.733333 59.733334 59.733333h209.92c32.426667 0 59.733333-27.306667 59.733333-59.733333s-25.6-59.733333-58.026667-59.733333z m-104.106666-153.6c20.48 0 35.84 17.066667 35.84 35.84 0 17.066667-10.24 30.72-25.6 34.133333l-10.24 5.12c-3.413333-3.413333-6.826667-5.12-10.24-5.12-15.36-5.12-25.6-18.773333-25.6-34.133333-1.706667-18.773333 15.36-35.84 35.84-35.84z m0 110.933333l29.013333 42.666667h-58.026667l29.013334-42.666667z m104.106666 114.346667H633.173333c-6.826667 0-11.946667-5.12-11.946666-11.946667 0-6.826667 5.12-11.946667 11.946666-11.946667h209.92c6.826667 0 11.946667 5.12 11.946667 11.946667 1.706667 6.826667-5.12 11.946667-11.946667 11.946667z" fill="#566EB5" p-id="7392"></path></svg>