<?xml version="1.0" standalone="no"?><!DOCTYPE svg PUBLIC "-//W3C//DTD SVG 1.1//EN" "http://www.w3.org/Graphics/SVG/1.1/DTD/svg11.dtd"><svg t="1750317644210" class="icon" viewBox="0 0 1024 1024" version="1.1" xmlns="http://www.w3.org/2000/svg" p-id="4479" xmlns:xlink="http://www.w3.org/1999/xlink" width="200" height="200"><path d="M513.111 959.995c-60.315 0-118.842-11.82-173.957-35.132-53.218-22.509-101.007-54.727-142.038-95.757-41.031-41.031-73.248-88.819-95.758-142.038-23.312-55.114-35.131-113.642-35.131-173.957s11.82-118.842 35.131-173.957c22.51-53.218 54.727-101.007 95.758-142.038s88.819-73.248 142.038-95.758c55.115-23.312 113.642-35.131 173.957-35.131s118.843 11.82 173.957 35.131c53.219 22.51 101.007 54.727 142.038 95.758 41.03 41.031 73.248 88.819 95.757 142.038 23.312 55.115 35.132 113.642 35.132 173.957s-11.82 118.843-35.132 173.957c-22.509 53.219-54.727 101.007-95.757 142.038-41.031 41.03-88.819 73.248-142.038 95.757-55.114 23.312-113.641 35.132-173.957 35.132z m0-829.767c-211.123 0-382.884 171.761-382.884 382.884s171.761 382.884 382.884 382.884 382.884-171.761 382.884-382.884-171.761-382.884-382.884-382.884z" fill="" p-id="4480"></path><path d="M703.884 735.884c-8.189 0-16.379-3.124-22.627-9.373L297.435 342.689c-12.497-12.497-12.497-32.758 0-45.255s32.758-12.497 45.255 0l383.821 383.822c12.497 12.496 12.497 32.758 0 45.254-6.248 6.25-14.438 9.374-22.627 9.374z" fill="" p-id="4481"></path><path d="M320.117 735.884c-8.189 0-16.379-3.124-22.627-9.373-12.497-12.496-12.497-32.758 0-45.254l384.02-384.021c12.496-12.497 32.758-12.497 45.254 0 12.497 12.497 12.497 32.758 0.001 45.255l-384.021 384.02c-6.248 6.249-14.438 9.373-22.627 9.373z" fill="" p-id="4482"></path></svg>