<?xml version="1.0" standalone="no"?><!DOCTYPE svg PUBLIC "-//W3C//DTD SVG 1.1//EN" "http://www.w3.org/Graphics/SVG/1.1/DTD/svg11.dtd"><svg t="1750829697866" class="icon" viewBox="0 0 1024 1024" version="1.1" xmlns="http://www.w3.org/2000/svg" p-id="8454" xmlns:xlink="http://www.w3.org/1999/xlink" width="200" height="200"><path d="M731.887616 459.815936c-48.487424 0-88.103936 39.640064-88.103936 88.056832 0 30.831616 17.604608 61.647872 44.027904 74.911744 13.236224 8.77568 26.42432 13.211648 44.076032 13.211648 17.619968 0 30.788608-4.435968 44.024832-13.211648 26.427392-13.263872 44.076032-44.080128 44.076032-74.911744-0.004096-48.416768-39.640064-88.056832-88.100864-88.056832z m22.032384 127.6928c-8.848384 4.435968-13.259776 8.823808-26.447872 8.823808-8.823808 0-17.624064-4.38784-26.428416-8.823808-13.2352-8.800256-17.64352-22.016-17.64352-35.2 0-22.03648 22.03136-44.076032 44.071936-44.076032 26.447872 0 44.032 22.039552 44.032 44.076032 4.40832 13.188096-4.391936 26.399744-17.584128 35.2z m0 0" fill="#6E6E6E" p-id="8455"></path><path d="M423.552 887.044096H203.324416C141.643776 887.044096 93.184 838.596608 93.184 776.948736V204.324864C93.184 142.660608 141.643776 94.208 203.32032 94.208h484.488192c61.703168 0 110.139392 48.452608 110.139392 110.116864v132.139008c0 13.22496-8.819712 22.028288-22.035456 22.028288-13.236224 0-21.988352-8.803328-21.988352-22.028288V204.324864c0-35.236864-30.864384-66.064384-66.112512-66.064384H203.32032c-35.248128 0-66.08384 30.82752-66.08384 66.064384v572.623872c0 35.227648 30.835712 66.06336 66.08384 66.06336h220.23168c13.215744 0 22.039552 8.779776 22.039552 21.992448 0 13.236224-8.823808 22.039552-22.039552 22.039552z m0 0M771.504128 613.98016l-17.580032-26.471424c-8.85248 4.435968-13.263872 8.823808-26.451968 8.823808-8.819712 0-17.624064-4.38784-26.42432-8.823808l-13.236224 26.471424-105.703424 189.36832h303.947776L771.504128 613.98016z m-39.616512 22.016l88.100864 162.992128H648.17152l83.716096-162.992128z m0 0" fill="#6E6E6E" p-id="8456"></path><path d="M886.055936 843.012096v44.027904H577.72032v-44.027904h308.335616z m0-44.023808H577.72032c-26.447872 0-44.071936 17.575936-44.071936 44.023808v44.027904c0 26.42432 17.624064 44.048384 44.071936 44.048384h308.335616c26.420224 0 44.023808-17.624064 44.023808-44.048384v-44.027904c0-22.035456-21.991424-44.023808-44.023808-44.023808" fill="#6E6E6E" p-id="8457"></path><path d="M533.855232 574.547968H225.519616c-13.212672 0-22.03648-8.823808-22.03648-22.023168 0-13.228032 8.823808-22.028288 22.03648-22.028288h308.335616c13.188096 0 22.011904 8.800256 22.011904 22.028288 0 13.19936-8.823808 22.023168-22.011904 22.023168zM390.495232 706.676736H225.519616c-13.212672 0-22.03648-8.800256-22.03648-22.011904 0-13.228032 8.823808-22.040576 22.03648-22.040576h164.975616c13.188096 0 22.011904 8.81664 22.011904 22.040576 0 13.211648-8.823808 22.011904-22.011904 22.011904z" fill="#6E6E6E" p-id="8458"></path><path d="M252.7744 385.62304c4.416512 2.207744 9.716736 6.183936 17.667072 10.380288 14.134272 7.507968 33.788928 9.054208 57.419776 9.054208 24.072192 0 57.197568-1.767424 78.179328-4.196352-2.208768 5.080064-5.301248 14.575616-5.522432 20.097024-15.238144 0.882688-52.118528 2.428928-73.320448 2.428928-26.058752 0-45.051904-2.650112-60.731392-10.820608-9.496576-5.300224-16.5632-11.48416-21.643264-11.48416-7.729152 0-18.992128 12.145664-30.255104 25.176064l-12.366848-17.225728c10.379264-9.93792 21.200896-18.3296 30.697472-22.525952V322.68288h-27.604992v-18.992128h47.481856v81.932288z m-10.821632-104.679424c-6.183936-10.159104-20.317184-25.176064-32.242688-35.996672l15.680512-11.042816c11.925504 9.93792 26.28096 24.513536 32.905216 34.67264l-16.34304 12.366848z m93.417472 76.854272c0 5.521408 0.661504 13.029376 1.103872 17.224704-45.715456 11.705344-53.003264 13.914112-57.86112 17.004544-1.325056-4.636672-5.741568-12.809216-9.054208-16.120832 4.196352-2.650112 9.716736-7.730176 9.716736-17.446912V234.78784h103.134208v83.037184l1.54624-1.325056 15.680512 12.588032c-10.600448 7.508992-22.525952 15.680512-33.34656 21.863424 11.48416 9.93792 22.304768 19.87584 29.372416 28.048384l-15.238144 12.145664c-12.809216-16.121856-40.636416-40.855552-63.602688-57.418752l13.913088-10.380288c7.066624 4.85888 14.574592 10.820608 22.525952 16.784384 9.716736-6.182912 20.538368-14.795776 28.26752-21.42208h-81.491968v47.481856l35.334144-8.392704z m-35.335168-106.226688v17.004544h62.498816v-17.004544h-62.498816z m62.498816 50.352128v-17.888256h-62.498816v17.888256h62.498816zM529.047552 345.428992c-0.662528 5.962752-1.325056 11.705344-2.429952 17.225728h62.72v0.221184h15.238144s-0.221184 5.07904-0.661504 7.508992c-2.650112 30.697472-5.521408 44.169216-11.48416 49.6896-4.196352 4.196352-9.276416 5.521408-16.34304 6.182912-6.404096 0.442368-18.3296 0.221184-30.697472-0.441344-0.221184-5.080064-2.428928-11.925504-5.300224-16.785408 11.48416 1.104896 23.189504 1.325056 27.384832 1.325056 3.975168 0 6.182912-0.22016 8.39168-1.98656 2.871296-2.871296 5.300224-11.041792 7.066624-29.592576h-60.512256c-7.286784 21.643264-21.421056 38.646784-50.130944 49.46944-2.428928-4.85888-7.508992-12.146688-11.925504-15.680512 37.101568-12.809216 45.273088-36.217856 48.585728-67.136512H470.30272v-16.5632h66.03264c-2.651136-6.404096-7.066624-15.238144-11.042816-21.863424l17.225728-5.741568h-78.399488c-0.221184 37.321728-3.976192 91.20768-23.630848 127.64672-3.975168-3.091456-13.249536-7.950336-18.770944-9.93792 19.87584-35.113984 21.863424-86.12864 21.863424-121.242624v-50.794496h74.20416c-1.987584-5.521408-4.416512-11.262976-6.183936-16.120832l20.097024-5.080064c2.871296 6.62528 6.183936 14.575616 8.612864 21.200896h70.890496V301.2608h-67.79904c4.636672 7.066624 9.93792 16.5632 12.366848 22.525952l-13.25056 5.07904h75.308032v16.5632h-88.778752z m-64.927744-81.26976v19.87584h126.764032v-19.87584H464.119808z" fill="#5285C5" p-id="8459"></path></svg>