<?xml version="1.0" standalone="no"?><!DOCTYPE svg PUBLIC "-//W3C//DTD SVG 1.1//EN" "http://www.w3.org/Graphics/SVG/1.1/DTD/svg11.dtd"><svg t="1750829816894" class="icon" viewBox="0 0 1080 1024" version="1.1" xmlns="http://www.w3.org/2000/svg" p-id="10777" xmlns:xlink="http://www.w3.org/1999/xlink" width="210.9375" height="200"><path d="M161.678222 341.048889h592.839111v53.873778H161.735111z" fill="#0665BB" p-id="10778"></path><path d="M724.650667 987.761778a222.151111 222.151111 0 0 1 245.475555-367.843556V501.930667a31.402667 31.402667 0 0 0-31.402666-31.402667h-33.564445V49.095111a31.402667 31.402667 0 0 0-31.459555-31.402667H96.369778a31.402667 31.402667 0 0 0-31.459556 31.402667v421.432889H31.402667A31.402667 31.402667 0 0 0 0 501.930667v426.040889c0 32.995556 29.866667 59.790222 64.967111 59.790222h659.683556zM129.365333 146.602667h711.338667v323.925333H129.365333V146.602667z" fill="#0665BB" p-id="10779"></path><path d="M161.678222 179.370667h592.839111V233.244444H161.735111zM874.268444 667.420444a170.666667 170.666667 0 1 0 0 341.333334 170.666667 170.666667 0 0 0 0-341.333334z m113.664 246.328889a15.246222 15.246222 0 0 1-2.730666 6.485334c-0.853333 1.080889-3.072 2.048-6.599111 3.015111-3.527111 0.967111-7.964444 1.877333-13.368889 2.673778a469.048889 469.048889 0 0 1-37.603556 4.209777 444.871111 444.871111 0 0 1-51.768889 1.024 935.651556 935.651556 0 0 1-38.229333-2.673777 389.404444 389.404444 0 0 1-31.004444-4.096 17.521778 17.521778 0 0 1-6.826667-2.161778c-1.592889-1.024-2.844444-4.323556-3.697778-9.841778a68.721778 68.721778 0 0 1 1.080889-21.731556 16.839111 16.839111 0 0 1 7.111111-11.548444 48.583111 48.583111 0 0 1 13.482667-6.314667 191.715556 191.715556 0 0 1 16.099555-4.096 50.631111 50.631111 0 0 0 22.300445-10.467555 16.213333 16.213333 0 0 0 3.868444-4.892445 11.662222 11.662222 0 0 0 1.137778-5.12 77.937778 77.937778 0 0 0-0.227556-5.973333 10.808889 10.808889 0 0 0-3.754666-7.566222 182.044444 182.044444 0 0 0-7.111111-5.575111 10.581333 10.581333 0 0 1-3.527111-3.868445 48.014222 48.014222 0 0 1-5.063112-11.662222 24.177778 24.177778 0 0 1-1.536-1.592889 32.085333 32.085333 0 0 1-4.152888-8.419555 31.516444 31.516444 0 0 1-1.706667-6.371556 12.572444 12.572444 0 0 1 0.170667-4.778667 10.524444 10.524444 0 0 1 1.308444-4.209777c0-5.176889 0.341333-10.353778 1.024-15.587556 0.682667-4.266667 1.820444-8.931556 3.413333-13.994667a37.432889 37.432889 0 0 1 7.452445-13.539555 48.810667 48.810667 0 0 1 21.447111-14.904889c3.868444-1.365333 7.793778-2.275556 11.776-2.787556 3.982222-0.568889 7.793778-0.796444 11.377778-0.796444 3.982222 0.341333 7.281778 0.739556 9.784889 1.251555 2.503111 0.512 4.551111 1.137778 6.087111 1.877334a15.758222 15.758222 0 0 1 3.982222 2.673778l3.527111 3.128888h4.949333c1.536 0 3.072 0.170667 4.551111 0.568889a13.312 13.312 0 0 1 4.380445 2.104889 44.202667 44.202667 0 0 1 13.653333 19.000889c1.877333 5.233778 3.242667 10.24 4.152889 14.961778 0.853333 5.518222 1.365333 10.922667 1.536 16.270222 0.341333 0.739556 0.568889 1.592889 0.796445 2.616889a26.851556 26.851556 0 0 1 0 9.329778 27.648 27.648 0 0 1-1.592889 7.054222 12.344889 12.344889 0 0 1-2.275556 3.868444 7.623111 7.623111 0 0 1-2.844444 2.275556 52.337778 52.337778 0 0 1-5.12 11.605333 10.808889 10.808889 0 0 1-3.470223 3.925334 398.620444 398.620444 0 0 0-7.281777 5.233777c-1.877333 1.365333-3.185778 3.811556-3.868445 7.224889a16.554667 16.554667 0 0 0 1.422222 12.515556c1.137778 2.161778 2.901333 4.209778 5.404445 6.144a35.669333 35.669333 0 0 0 10.524444 5.12c3.982222 1.308444 8.362667 2.56 13.084445 3.640889 4.778667 1.137778 9.329778 2.389333 13.767111 3.811555a49.038222 49.038222 0 0 1 11.776 5.461334c3.470222 2.218667 5.916444 5.12 7.281778 8.647111a59.847111 59.847111 0 0 1 2.616889 17.578666 47.445333 47.445333 0 0 1-0.967112 9.216z" fill="#0665BB" p-id="10780"></path><path d="M872.049778 829.098667a50.176 50.176 0 0 0-3.413334-3.015111h-13.198222a21.788444 21.788444 0 0 0-5.006222 5.518222c-0.455111 0.910222-0.398222 1.706667 0.170667 2.503111l3.413333 5.575111c0.967111 1.592889 1.991111 2.844444 3.128889 3.754667a272.384 272.384 0 0 1-1.706667 5.859555 160.142222 160.142222 0 0 0-3.868444 15.303111 29.354667 29.354667 0 0 0-0.682667 5.347556c0 0.796444 0.398222 1.706667 1.251556 2.730667a42.097778 42.097778 0 0 0 3.015111 3.356444c1.137778 1.137778 2.332444 2.048 3.584 2.844444 1.251556 0.739556 2.332444 1.137778 3.299555 1.137778a7.281778 7.281778 0 0 0 3.413334-1.137778 28.728889 28.728889 0 0 0 3.868444-2.616888 17.749333 17.749333 0 0 0 3.128889-3.242667c0.853333-1.137778 1.308444-2.048 1.308444-2.844445a21.788444 21.788444 0 0 0-0.853333-4.664888 528.156444 528.156444 0 0 1-1.877333-7.395556 173.738667 173.738667 0 0 0-4.152889-14.222222 13.255111 13.255111 0 0 0 3.299555-3.299556c1.080889-1.422222 2.332444-3.413333 3.868445-5.802666a2.787556 2.787556 0 0 0 0.113778-2.844445 10.069333 10.069333 0 0 0-2.104889-2.844444z" fill="#0665BB" p-id="10781"></path></svg>