<?xml version="1.0" standalone="no"?><!DOCTYPE svg PUBLIC "-//W3C//DTD SVG 1.1//EN" "http://www.w3.org/Graphics/SVG/1.1/DTD/svg11.dtd"><svg t="1750317723463" class="icon" viewBox="0 0 1024 1024" version="1.1" xmlns="http://www.w3.org/2000/svg" p-id="5481" xmlns:xlink="http://www.w3.org/1999/xlink" width="200" height="200"><path d="M512 13.750857a498.249143 498.249143 0 1 1 0 996.498286A498.249143 498.249143 0 0 1 512 13.750857z m0 82.285714a416.036571 416.036571 0 1 0 0 832A416.036571 416.036571 0 0 0 512 95.963429z m-60.123429 229.229715c9.508571 0 18.724571 2.852571 26.624 8.045714L643.657143 443.538286a82.285714 82.285714 0 0 1 0 136.923428L478.500571 690.541714a47.981714 47.981714 0 0 1-74.605714-39.936V373.321143c0-26.550857 21.430857-48.054857 47.981714-48.054857z m25.088 95.012571v183.296l126.098286-84.041143a9.216 9.216 0 0 0 0-15.213714l-126.098286-84.114286z" fill="#8a8a8a" p-id="5482"></path></svg>