<?xml version="1.0" standalone="no"?><!DOCTYPE svg PUBLIC "-//W3C//DTD SVG 1.1//EN" "http://www.w3.org/Graphics/SVG/1.1/DTD/svg11.dtd"><svg t="1750830199364" class="icon" viewBox="0 0 1024 1024" version="1.1" xmlns="http://www.w3.org/2000/svg" p-id="20395" xmlns:xlink="http://www.w3.org/1999/xlink" width="200" height="200"><path d="M894.33472 750.95808c0-13.37472-1.71136-26.34752-4.91776-38.71616l48.45568-28.05376-40.54272-70.4192-49.34144 28.06016c-18.42048-18.25024-42.92992-31.84128-68.02944-38.87616L779.95904 548.4416 699.0848 548.4416l0 54.60992c-25.09824 7.08224-47.79904 20.6784-66.15296 38.91072l-48.3136-28.19456-40.35072 70.4192 48.8704 28.23808c-3.17696 12.3136-4.82048 25.22496-4.82048 38.53184 0 13.41312 1.74592 26.42432 4.97152 38.82496l-48.84096 28.28416 40.5504 70.4192 48.15104-28.32c18.3168 18.12352 40.8384 31.64288 65.93792 38.69696l0 57.87392 80.87424 0 0-57.77408c25.09824-7.008 49.4272-20.52096 67.81056-38.66368l49.12128 28.18688 40.7616-70.4192-48.42496-28.09984C892.48384 777.5104 894.33472 764.43776 894.33472 750.95808L894.33472 750.95808zM741.34912 837.82784c-47.84384 0-86.62912-38.8928-86.62912-86.86976 0-47.97696 38.78528-86.86976 86.62912-86.86976s86.62912 38.8928 86.62912 86.86976C827.97696 798.93376 789.19296 837.82784 741.34912 837.82784L741.34912 837.82784z" fill="#717071" p-id="20396"></path><path d="M519.62368 578.88768l27.9296-48.68736 48.43392 28.21248 15.4496 9.1008c4.98048-3.2064 10.9568-6.20032 15.13984-8.96896l0-17.09568 0-1.51296c-27.40992-16.9792-56.82176-29.56416-87.7888-36.9664 79.40992-26.8544 136.59264-102.14784 136.59264-190.83776 0-111.20256-89.89696-201.3504-200.79104-201.3504s-200.79104 90.14784-200.79104 201.3504c0 88.42112 56.83712 163.52384 135.872 190.58816-136.33024 31.88608-242.7776 163.59808-264.33536 329.06752-0.14464 4.32768-0.52992 9.13152-1.21472 14.4832-4.83968 37.86112 19.21536 46.06336 34.3808 47.54176l332.44928 0-31.53792-54.7712-27.88864-48.4352 48.29824-27.968 16.19968-9.38112c-0.13696-3.09376-0.20608-6.19264-0.20608-9.2928 0-2.97216 0.06144-5.94176 0.18432-8.9024l-16.2816-9.41312-48.27648-27.90784 27.78624-48.43776L519.62368 578.88768 519.62368 578.88768z" fill="#717071" p-id="20397"></path></svg>