<?xml version="1.0" standalone="no"?><!DOCTYPE svg PUBLIC "-//W3C//DTD SVG 1.1//EN" "http://www.w3.org/Graphics/SVG/1.1/DTD/svg11.dtd"><svg t="1750829548963" class="icon" viewBox="0 0 1024 1024" version="1.1" xmlns="http://www.w3.org/2000/svg" p-id="6369" xmlns:xlink="http://www.w3.org/1999/xlink" width="200" height="200"><path d="M102.4 43.885714h819.2c58.514286 0 102.4 43.885714 102.4 102.4v21.942857H0V146.285714C0 87.771429 43.885714 43.885714 102.4 43.885714zM636.342857 585.142857h277.942857v58.514286H636.342857V585.142857z m-373.028571 51.2h14.628571c14.628571 7.314286 36.571429 14.628571 51.2 14.628572 21.942857 0 36.571429-7.314286 51.2-14.628572h14.628572c51.2 0 87.771429 36.571429 87.771428 87.771429v7.314285c0 21.942857-14.628571 36.571429-36.571428 36.571429H212.114286c-21.942857 0-36.571429-14.628571-36.571429-36.571429v-7.314285c0-43.885714 36.571429-87.771429 87.771429-87.771429z m73.142857-226.742857c51.2 0 87.771429 36.571429 87.771428 87.771429s-43.885714 95.085714-87.771428 95.085714-95.085714-43.885714-95.085714-87.771429 43.885714-95.085714 95.085714-95.085714z m299.885714 292.571429h277.942857v58.514285H636.342857v-58.514285z m0-226.742858h277.942857v58.514286H636.342857v-58.514286zM1024 234.057143H0V877.714286c0 58.514286 43.885714 102.4 102.4 102.4h819.2c58.514286 0 102.4-43.885714 102.4-102.4V234.057143z" p-id="6370"></path></svg>